<svg xmlns="http://www.w3.org/2000/svg" width="1200" height="630" viewBox="0 0 1200 630" fill="none">
  <defs>
    <filter id="glow-green" x="-50%" y="-50%" width="200%" height="200%">
      <feGaussianBlur stdDeviation="4" result="blur"/>
      <feMerge><feMergeNode in="blur"/><feMergeNode in="SourceGraphic"/></feMerge>
    </filter>
    <filter id="glow-red" x="-50%" y="-50%" width="200%" height="200%">
      <feGaussianBlur stdDeviation="4" result="blur"/>
      <feMerge><feMergeNode in="blur"/><feMergeNode in="SourceGraphic"/></feMerge>
    </filter>
    <filter id="glow-blue" x="-50%" y="-50%" width="200%" height="200%">
      <feGaussianBlur stdDeviation="3" result="blur"/>
      <feMerge><feMergeNode in="blur"/><feMergeNode in="SourceGraphic"/></feMerge>
    </filter>
  </defs>

  <!-- Background -->
  <rect width="1200" height="630" fill="#0d1117"/>

  <!-- ── RIGHT SIDE: graph visualization ─────────────────────── -->

  <!-- Off-path edges (very faint) -->
  <line x1="700" y1="240" x2="760" y2="390" stroke="#21262d" stroke-width="1.5"/>
  <line x1="760" y1="390" x2="900" y2="450" stroke="#21262d" stroke-width="1.5"/>
  <line x1="760" y1="390" x2="1000" y2="220" stroke="#21262d" stroke-width="1.5"/>
  <line x1="840" y1="155" x2="960" y2="110" stroke="#21262d" stroke-width="1.5"/>
  <line x1="960" y1="110" x2="1110" y2="160" stroke="#21262d" stroke-width="1.5"/>
  <line x1="1110" y1="160" x2="1000" y2="220" stroke="#21262d" stroke-width="1.5"/>
  <line x1="900" y1="450" x2="1070" y2="390" stroke="#21262d" stroke-width="1.5"/>
  <line x1="1000" y1="220" x2="900" y2="450" stroke="#21262d" stroke-width="1.5"/>

  <!-- Highlighted path edges (blue, glowing) -->
  <line x1="700" y1="240" x2="840" y2="155" stroke="#58a6ff" stroke-width="2" opacity="0.5"/>
  <line x1="840" y1="155" x2="1000" y2="220" stroke="#58a6ff" stroke-width="2" opacity="0.5"/>
  <line x1="1000" y1="220" x2="1070" y2="390" stroke="#58a6ff" stroke-width="2" opacity="0.5"/>

  <!-- Off-path nodes (dark) -->
  <circle cx="760" cy="390" r="7" fill="#21262d" stroke="#30363d" stroke-width="1.5"/>
  <circle cx="960" cy="110" r="7" fill="#21262d" stroke="#30363d" stroke-width="1.5"/>
  <circle cx="1110" cy="160" r="7" fill="#21262d" stroke="#30363d" stroke-width="1.5"/>
  <circle cx="900" cy="450" r="7" fill="#21262d" stroke="#30363d" stroke-width="1.5"/>

  <!-- Path nodes (blue) -->
  <circle cx="840" cy="155" r="9" fill="#1c2d3f" stroke="#58a6ff" stroke-width="2" filter="url(#glow-blue)"/>
  <circle cx="840" cy="155" r="5" fill="#58a6ff"/>
  <circle cx="1000" cy="220" r="9" fill="#1c2d3f" stroke="#58a6ff" stroke-width="2" filter="url(#glow-blue)"/>
  <circle cx="1000" cy="220" r="5" fill="#58a6ff"/>

  <!-- Start node (green) -->
  <circle cx="700" cy="240" r="12" fill="#0d2318" stroke="#3fb950" stroke-width="2.5" filter="url(#glow-green)"/>
  <circle cx="700" cy="240" r="6" fill="#3fb950"/>

  <!-- End node (red) -->
  <circle cx="1070" cy="390" r="12" fill="#2d0f0e" stroke="#f85149" stroke-width="2.5" filter="url(#glow-red)"/>
  <circle cx="1070" cy="390" r="6" fill="#f85149"/>

  <!-- ── LEFT SIDE: text as paths (JetBrains Mono outlines; no runtime fonts) ─ -->

  <g transform="translate(74 46)">
    <!-- Mini Iris logo (triangle graph) -->
    <line x1="7" y1="7" x2="27" y2="7" stroke="#f0f6fc" stroke-width="2" stroke-linecap="round" opacity="0.6"/>
    <line x1="7" y1="7" x2="17" y2="25" stroke="#f0f6fc" stroke-width="2" stroke-linecap="round" opacity="0.6"/>
    <line x1="27" y1="7" x2="17" y2="25" stroke="#f0f6fc" stroke-width="2" stroke-linecap="round" opacity="0.6"/>
    <circle cx="7"  cy="7"  r="4.5" fill="#3fb950"/>
    <circle cx="27" cy="7"  r="4.5" fill="#f85149"/>
    <circle cx="17" cy="25" r="4.5" fill="#58a6ff"/>
    <path fill="#8b949e" d="M52.91 20L45.89 20L45.89 18.52L48.57 18.52L48.57 8.34L45.89 8.34L45.89 6.86L52.91 6.86L52.91 8.34L50.23 8.34L50.23 18.52L52.91 18.52L52.91 20Z"/><path fill="#8b949e" d="M62.04 20L60.43 20L60.43 6.86L64.48 6.86Q65.65 6.86 66.54 7.34Q67.42 7.81 67.90 8.66Q68.39 9.51 68.39 10.64L68.39 10.64Q68.39 11.97 67.71 12.93Q67.02 13.88 65.89 14.26L65.89 14.26L68.57 20L66.79 20L64.21 14.42L62.04 14.42L62.04 20ZM62.04 8.32L62.04 12.96L64.48 12.96Q65.49 12.96 66.10 12.32Q66.72 11.68 66.72 10.64L66.72 10.64Q66.72 9.58 66.10 8.95Q65.49 8.32 64.48 8.32L64.48 8.32L62.04 8.32Z"/><path fill="#8b949e" d="M82.43 20L75.41 20L75.41 18.52L78.09 18.52L78.09 8.34L75.41 8.34L75.41 6.86L82.43 6.86L82.43 8.34L79.75 8.34L79.75 18.52L82.43 18.52L82.43 20Z"/><path fill="#8b949e" d="M93.75 20.18L93.75 20.18Q91.84 20.18 90.71 19.17Q89.58 18.16 89.58 16.40L89.58 16.40L91.20 16.40Q91.20 17.50 91.90 18.12Q92.60 18.74 93.75 18.74L93.75 18.74Q94.87 18.74 95.53 18.09Q96.20 17.44 96.20 16.40L96.20 16.40Q96.20 15.61 95.78 15.02Q95.35 14.44 94.56 14.22L94.56 14.22L92.56 13.66Q91.32 13.30 90.61 12.38Q89.90 11.45 89.90 10.19L89.90 10.19Q89.90 9.15 90.37 8.35Q90.84 7.56 91.68 7.12Q92.53 6.68 93.63 6.68L93.63 6.68Q94.74 6.68 95.60 7.12Q96.45 7.56 96.94 8.34Q97.42 9.13 97.42 10.15L97.42 10.15L95.80 10.15Q95.80 9.25 95.19 8.69Q94.58 8.12 93.63 8.12L93.63 8.12Q92.67 8.12 92.08 8.69Q91.48 9.25 91.48 10.15L91.48 10.15Q91.48 10.87 91.87 11.39Q92.26 11.90 92.96 12.10L92.96 12.10L95.01 12.67Q96.33 13.03 97.05 14.03Q97.78 15.03 97.78 16.40L97.78 16.40Q97.78 18.13 96.69 19.15Q95.59 20.18 93.75 20.18Z"/>
  </g>

  <g transform="translate(74 248)">
    <path fill="#f0f6fc" d="M49.92 0L0 0L0-10.50L19.07-10.50L19.07-82.94L0-82.94L0-93.44L49.92-93.44L49.92-82.94L30.85-82.94L30.85-10.50L49.92-10.50L49.92 0Z"/><path fill="#f0f6fc" d="M82.82 0L71.42 0L71.42-93.44L100.22-93.44Q108.54-93.44 114.82-90.05Q121.09-86.66 124.54-80.64Q128-74.62 128-66.56L128-66.56Q128-57.09 123.14-50.30Q118.27-43.52 110.21-40.83L110.21-40.83L129.28 0L116.61 0L98.30-39.68L82.82-39.68L82.82 0ZM82.82-83.07L82.82-50.05L100.22-50.05Q107.39-50.05 111.74-54.59Q116.10-59.14 116.10-66.56L116.10-66.56Q116.10-74.11 111.74-78.59Q107.39-83.07 100.22-83.07L100.22-83.07L82.82-83.07Z"/><path fill="#f0f6fc" d="M195.84 0L145.92 0L145.92-10.50L164.99-10.50L164.99-82.94L145.92-82.94L145.92-93.44L195.84-93.44L195.84-82.94L176.77-82.94L176.77-10.50L195.84-10.50L195.84 0Z"/><path fill="#f0f6fc" d="M244.35 1.28L244.35 1.28Q230.78 1.28 222.72-5.89Q214.66-13.06 214.66-25.60L214.66-25.60L226.18-25.60Q226.18-17.79 231.17-13.38Q236.16-8.96 244.35-8.96L244.35-8.96Q252.29-8.96 257.02-13.57Q261.76-18.18 261.76-25.60L261.76-25.60Q261.76-31.23 258.75-35.39Q255.74-39.55 250.11-41.09L250.11-41.09L235.90-45.06Q227.07-47.62 222.02-54.21Q216.96-60.80 216.96-69.76L216.96-69.76Q216.96-77.18 220.29-82.82Q223.62-88.45 229.63-91.58Q235.65-94.72 243.46-94.72L243.46-94.72Q251.39-94.72 257.47-91.58Q263.55-88.45 267.01-82.88Q270.46-77.31 270.46-70.02L270.46-70.02L258.94-70.02Q258.94-76.42 254.59-80.45Q250.24-84.48 243.46-84.48L243.46-84.48Q236.67-84.48 232.45-80.45Q228.22-76.42 228.22-70.02L228.22-70.02Q228.22-64.90 230.98-61.25Q233.73-57.60 238.72-56.19L238.72-56.19L253.31-52.10Q262.66-49.54 267.84-42.43Q273.02-35.33 273.02-25.60L273.02-25.60Q273.02-13.31 265.22-6.02Q257.41 1.28 244.35 1.28Z"/>
    <path fill="#8b949e" d="M5.80 76L2.52 76L0.00 54.83L2.41 54.83L4.06 70.49Q4.18 71.45 4.23 72.48Q4.29 73.51 4.32 74.11L4.32 74.11Q4.38 73.51 4.48 72.48Q4.58 71.45 4.70 70.49L4.70 70.49L6.79 54.83L9.60 54.83L11.51 70.49Q11.63 71.45 11.75 72.48Q11.86 73.51 11.92 74.11L11.92 74.11Q11.98 73.51 12.05 72.48Q12.12 71.45 12.24 70.49L12.24 70.49L13.95 54.83L16.24 54.83L13.66 76L10.38 76L8.47 60.05Q8.35 59.06 8.29 58.12Q8.24 57.18 8.18 56.66L8.18 56.66Q8.12 57.18 8.06 58.12Q8.00 59.06 7.86 60.05L7.86 60.05L5.80 76Z"/><path fill="#8b949e" d="M32.92 76L19.29 76L19.29 73.62L24.94 73.62L24.94 62.43L19.87 62.43L19.87 60.05L27.55 60.05L27.55 73.62L32.92 73.62L32.92 76ZM25.96 57.18L25.96 57.18Q25.00 57.18 24.45 56.69Q23.90 56.19 23.90 55.35L23.90 55.35Q23.90 54.48 24.45 53.97Q25.00 53.47 25.96 53.47L25.96 53.47Q26.91 53.47 27.46 53.97Q28.01 54.48 28.01 55.35L28.01 55.35Q28.01 56.19 27.46 56.69Q26.91 57.18 25.96 57.18Z"/><path fill="#8b949e" d="M39.64 76L37.03 76L37.03 54.83L39.64 54.83L39.64 66.63L42.69 66.63L47.15 60.05L50.14 60.05L45.01 67.65L50.43 76L47.39 76L42.75 68.89L39.64 68.89L39.64 76Z"/><path fill="#8b949e" d="M67.72 76L54.09 76L54.09 73.62L59.74 73.62L59.74 62.43L54.67 62.43L54.67 60.05L62.35 60.05L62.35 73.62L67.72 73.62L67.72 76ZM60.76 57.18L60.76 57.18Q59.80 57.18 59.25 56.69Q58.70 56.19 58.70 55.35L58.70 55.35Q58.70 54.48 59.25 53.97Q59.80 53.47 60.76 53.47L60.76 53.47Q61.71 53.47 62.26 53.97Q62.81 54.48 62.81 55.35L62.81 55.35Q62.81 56.19 62.26 56.69Q61.71 57.18 60.76 57.18Z"/><path fill="#8b949e" d="M74.30 81.22L71.69 81.22L71.69 60.05L74.30 60.05L74.30 63.09L74.33 63.09Q74.53 61.53 75.69 60.64Q76.85 59.76 78.65 59.76L78.65 59.76Q81.06 59.76 82.48 61.34Q83.90 62.92 83.90 65.68L83.90 65.68L83.90 70.34Q83.90 73.10 82.48 74.69Q81.06 76.29 78.65 76.29L78.65 76.29Q76.85 76.29 75.69 75.39Q74.53 74.49 74.33 72.95L74.33 72.95L74.24 72.95L74.30 76.58L74.30 81.22ZM77.78 74.03L77.78 74.03Q79.43 74.03 80.36 73.16Q81.29 72.29 81.29 70.34L81.29 70.34L81.29 65.70Q81.29 63.73 80.36 62.88Q79.43 62.02 77.78 62.02L77.78 62.02Q76.18 62.02 75.24 63.04Q74.30 64.05 74.30 65.85L74.30 65.85L74.30 70.20Q74.30 72.00 75.24 73.01Q76.18 74.03 77.78 74.03Z"/><path fill="#8b949e" d="M95.12 76.29L95.12 76.29Q92.31 76.29 90.58 74.59Q88.86 72.90 88.86 69.91L88.86 69.91L88.86 66.14Q88.86 63.15 90.58 61.46Q92.31 59.76 95.12 59.76L95.12 59.76Q97.01 59.76 98.41 60.51Q99.82 61.27 100.60 62.63Q101.38 63.99 101.38 65.85L101.38 65.85L101.38 68.69L91.41 68.69L91.41 70.20Q91.41 71.97 92.42 73.00Q93.44 74.03 95.12 74.03L95.12 74.03Q96.57 74.03 97.51 73.46Q98.46 72.90 98.66 71.94L98.66 71.94L101.27 71.94Q101.01 73.94 99.33 75.12Q97.64 76.29 95.12 76.29ZM91.41 65.85L91.41 66.66L98.83 66.66L98.83 65.85Q98.83 63.97 97.86 62.94Q96.89 61.91 95.12 61.91L95.12 61.91Q93.35 61.91 92.38 62.94Q91.41 63.97 91.41 65.85L91.41 65.85Z"/><path fill="#8b949e" d="M111.59 76.29L111.59 76.29Q109.21 76.29 107.78 74.69Q106.34 73.10 106.34 70.37L106.34 70.37L106.34 65.70Q106.34 62.95 107.76 61.35Q109.19 59.76 111.59 59.76L111.59 59.76Q113.39 59.76 114.56 60.66Q115.74 61.56 115.97 63.09L115.97 63.09L116.00 63.09L115.94 59.47L115.94 54.83L118.55 54.83L118.55 76L115.94 76L115.94 72.95L115.91 72.95Q115.71 74.52 114.55 75.41Q113.39 76.29 111.59 76.29ZM112.46 74.03L112.46 74.03Q114.09 74.03 115.01 73.01Q115.94 72.00 115.94 70.20L115.94 70.20L115.94 65.85Q115.94 64.05 115.01 63.04Q114.09 62.02 112.46 62.02L112.46 62.02Q110.81 62.02 109.88 62.88Q108.95 63.73 108.95 65.70L108.95 65.70L108.95 70.34Q108.95 72.29 109.88 73.16Q110.81 74.03 112.46 74.03Z"/><path fill="#8b949e" d="M137.32 76L123.69 76L123.69 73.62L129.34 73.62L129.34 62.43L124.27 62.43L124.27 60.05L131.95 60.05L131.95 73.62L137.32 73.62L137.32 76ZM130.36 57.18L130.36 57.18Q129.40 57.18 128.85 56.69Q128.30 56.19 128.30 55.35L128.30 55.35Q128.30 54.48 128.85 53.97Q129.40 53.47 130.36 53.47L130.36 53.47Q131.31 53.47 131.86 53.97Q132.41 54.48 132.41 55.35L132.41 55.35Q132.41 56.19 131.86 56.69Q131.31 57.18 130.36 57.18Z"/><path fill="#8b949e" d="M145.93 76.29L145.93 76.29Q143.46 76.29 142.01 74.91Q140.56 73.53 140.56 71.30L140.56 71.30Q140.56 69.82 141.23 68.72Q141.90 67.62 143.09 67.00Q144.28 66.37 145.81 66.37L145.81 66.37L150.74 66.37L150.74 65.13Q150.74 62.02 147.35 62.02L147.35 62.02Q145.84 62.02 144.91 62.57Q143.99 63.12 143.93 64.11L143.93 64.11L141.32 64.11Q141.46 62.23 143.07 60.99Q144.68 59.76 147.35 59.76L147.35 59.76Q150.25 59.76 151.80 61.15Q153.35 62.54 153.35 65.04L153.35 65.04L153.35 76L150.77 76L150.77 73.10L150.71 73.10Q150.48 74.58 149.23 75.43Q147.99 76.29 145.93 76.29ZM146.57 74.09L146.57 74.09Q148.48 74.09 149.61 73.16Q150.74 72.23 150.74 70.64L150.74 70.64L150.74 68.40L146.10 68.40Q144.83 68.40 144.03 69.17Q143.23 69.94 143.23 71.22L143.23 71.22Q143.23 72.55 144.12 73.32Q145.00 74.09 146.57 74.09Z"/><path fill="#8b949e" d="M178.70 81.22L176.09 81.22L176.09 60.05L178.70 60.05L178.70 63.09L178.73 63.09Q178.93 61.53 180.09 60.64Q181.25 59.76 183.05 59.76L183.05 59.76Q185.46 59.76 186.88 61.34Q188.30 62.92 188.30 65.68L188.30 65.68L188.30 70.34Q188.30 73.10 186.88 74.69Q185.46 76.29 183.05 76.29L183.05 76.29Q181.25 76.29 180.09 75.39Q178.93 74.49 178.73 72.95L178.73 72.95L178.64 72.95L178.70 76.58L178.70 81.22ZM182.18 74.03L182.18 74.03Q183.83 74.03 184.76 73.16Q185.69 72.29 185.69 70.34L185.69 70.34L185.69 65.70Q185.69 63.73 184.76 62.88Q183.83 62.02 182.18 62.02L182.18 62.02Q180.58 62.02 179.64 63.04Q178.70 64.05 178.70 65.85L178.70 65.85L178.70 70.20Q178.70 72.00 179.64 73.01Q180.58 74.03 182.18 74.03Z"/><path fill="#8b949e" d="M198.13 76.29L198.13 76.29Q195.66 76.29 194.21 74.91Q192.76 73.53 192.76 71.30L192.76 71.30Q192.76 69.82 193.43 68.72Q194.10 67.62 195.29 67.00Q196.48 66.37 198.01 66.37L198.01 66.37L202.94 66.37L202.94 65.13Q202.94 62.02 199.55 62.02L199.55 62.02Q198.04 62.02 197.11 62.57Q196.19 63.12 196.13 64.11L196.13 64.11L193.52 64.11Q193.66 62.23 195.27 60.99Q196.88 59.76 199.55 59.76L199.55 59.76Q202.45 59.76 204.00 61.15Q205.55 62.54 205.55 65.04L205.55 65.04L205.55 76L202.97 76L202.97 73.10L202.91 73.10Q202.68 74.58 201.43 75.43Q200.19 76.29 198.13 76.29ZM198.77 74.09L198.77 74.09Q200.68 74.09 201.81 73.16Q202.94 72.23 202.94 70.64L202.94 70.64L202.94 68.40L198.30 68.40Q197.03 68.40 196.23 69.17Q195.43 69.94 195.43 71.22L195.43 71.22Q195.43 72.55 196.32 73.32Q197.20 74.09 198.77 74.09Z"/><path fill="#8b949e" d="M223.16 76L218.52 76Q216.54 76 215.35 74.85Q214.17 73.71 214.17 71.80L214.17 71.80L214.17 62.43L209.58 62.43L209.58 60.05L214.17 60.05L214.17 55.55L216.78 55.55L216.78 60.05L223.30 60.05L223.30 62.43L216.78 62.43L216.78 71.80Q216.78 72.61 217.25 73.11Q217.73 73.62 218.52 73.62L218.52 73.62L223.16 73.62L223.16 76Z"/><path fill="#8b949e" d="M230.90 76L228.29 76L228.29 54.83L230.90 54.83L230.90 63.09L230.93 63.09Q231.13 61.50 232.23 60.63Q233.33 59.76 235.16 59.76L235.16 59.76Q237.57 59.76 238.99 61.24Q240.41 62.72 240.41 65.27L240.41 65.27L240.41 76L237.80 76L237.80 65.70Q237.80 63.91 236.89 62.94Q235.97 61.96 234.41 61.96L234.41 61.96Q232.78 61.96 231.84 62.98Q230.90 63.99 230.90 65.85L230.90 65.85L230.90 76Z"/><path fill="#8b949e" d="M251.87 76L249.26 76L249.26 64.60L244.62 64.60L244.62 62.23L249.26 62.23L249.26 58.89Q249.26 57.00 250.44 55.92Q251.63 54.83 253.72 54.83L253.72 54.83L258.39 54.83L258.39 57.21L253.72 57.21Q251.87 57.21 251.87 58.89L251.87 58.89L251.87 62.23L258.39 62.23L258.39 64.60L251.87 64.60L251.87 76Z"/><path fill="#8b949e" d="M276.52 76L262.89 76L262.89 73.62L268.54 73.62L268.54 62.43L263.47 62.43L263.47 60.05L271.15 60.05L271.15 73.62L276.52 73.62L276.52 76ZM269.56 57.18L269.56 57.18Q268.60 57.18 268.05 56.69Q267.50 56.19 267.50 55.35L267.50 55.35Q267.50 54.48 268.05 53.97Q268.60 53.47 269.56 53.47L269.56 53.47Q270.51 53.47 271.06 53.97Q271.61 54.48 271.61 55.35L271.61 55.35Q271.61 56.19 271.06 56.69Q270.51 57.18 269.56 57.18Z"/><path fill="#8b949e" d="M283.10 76L280.49 76L280.49 60.05L283.10 60.05L283.10 63.09L283.13 63.09Q283.33 61.50 284.43 60.63Q285.53 59.76 287.36 59.76L287.36 59.76Q289.77 59.76 291.19 61.24Q292.61 62.72 292.61 65.27L292.61 65.27L292.61 76L290.00 76L290.00 65.73Q290.00 63.91 289.09 62.94Q288.17 61.96 286.61 61.96L286.61 61.96Q284.98 61.96 284.04 62.98Q283.10 63.99 283.10 65.85L283.10 65.85L283.10 76Z"/><path fill="#8b949e" d="M302.99 76.29L302.99 76.29Q300.61 76.29 299.18 74.69Q297.74 73.10 297.74 70.37L297.74 70.37L297.74 65.70Q297.74 62.95 299.16 61.35Q300.59 59.76 302.99 59.76L302.99 59.76Q304.79 59.76 305.96 60.66Q307.14 61.56 307.37 63.09L307.37 63.09L307.40 63.09L307.34 59.47L307.34 54.83L309.95 54.83L309.95 76L307.34 76L307.34 72.95L307.31 72.95Q307.11 74.52 305.95 75.41Q304.79 76.29 302.99 76.29ZM303.86 74.03L303.86 74.03Q305.49 74.03 306.41 73.01Q307.34 72.00 307.34 70.20L307.34 70.20L307.34 65.85Q307.34 64.05 306.41 63.04Q305.49 62.02 303.86 62.02L303.86 62.02Q302.21 62.02 301.28 62.88Q300.35 63.73 300.35 65.70L300.35 65.70L300.35 70.34Q300.35 72.29 301.28 73.16Q302.21 74.03 303.86 74.03Z"/><path fill="#8b949e" d="M321.32 76.29L321.32 76.29Q318.51 76.29 316.78 74.59Q315.06 72.90 315.06 69.91L315.06 69.91L315.06 66.14Q315.06 63.15 316.78 61.46Q318.51 59.76 321.32 59.76L321.32 59.76Q323.20 59.76 324.61 60.51Q326.02 61.27 326.80 62.63Q327.58 63.99 327.58 65.85L327.58 65.85L327.58 68.69L317.61 68.69L317.61 70.20Q317.61 71.97 318.62 73.00Q319.64 74.03 321.32 74.03L321.32 74.03Q322.77 74.03 323.71 73.46Q324.66 72.90 324.86 71.94L324.86 71.94L327.47 71.94Q327.21 73.94 325.52 75.12Q323.84 76.29 321.32 76.29ZM317.61 65.85L317.61 66.66L325.03 66.66L325.03 65.85Q325.03 63.97 324.06 62.94Q323.09 61.91 321.32 61.91L321.32 61.91Q319.55 61.91 318.58 62.94Q317.61 63.97 317.61 65.85L317.61 65.85Z"/><path fill="#8b949e" d="M335.88 76L333.27 76L333.27 60.05L335.88 60.05L335.88 63.09L335.94 63.09Q336.14 61.56 337.24 60.66Q338.34 59.76 340.20 59.76L340.20 59.76Q342.69 59.76 344.04 61.25Q345.39 62.75 345.39 65.50L345.39 65.50L345.39 66.86L342.78 66.86L342.78 65.50Q342.78 62.02 339.39 62.02L339.39 62.02Q337.68 62.02 336.78 63.01Q335.88 63.99 335.88 65.85L335.88 65.85L335.88 76Z"/><path fill="#8b949e" d="M356.12 76.29L356.12 76.29Q355.05 76.29 354.39 75.65Q353.74 75.01 353.74 74.00L353.74 74.00Q353.74 72.93 354.39 72.26Q355.05 71.59 356.12 71.59L356.12 71.59Q357.19 71.59 357.85 72.26Q358.50 72.93 358.50 74.00L358.50 74.00Q358.50 75.01 357.85 75.65Q357.19 76.29 356.12 76.29Z"/><path fill="#8b949e" d="M391.35 76L384.92 76L384.92 54.83L390.92 54.83Q393.82 54.83 395.46 56.28Q397.10 57.73 397.10 60.31L397.10 60.31Q397.10 61.94 396.07 63.24Q395.04 64.55 393.38 64.86L393.38 64.86L393.38 64.95Q394.63 65.10 395.57 65.82Q396.52 66.55 397.05 67.66Q397.59 68.78 397.59 70.11L397.59 70.11Q397.59 72.84 395.92 74.42Q394.25 76 391.35 76L391.35 76ZM387.47 57.18L387.47 63.85L390.89 63.85Q392.57 63.85 393.54 62.95Q394.52 62.05 394.52 60.51L394.52 60.51Q394.52 58.98 393.56 58.08Q392.60 57.18 390.92 57.18L390.92 57.18L387.47 57.18ZM387.47 66.11L387.47 73.65L391.06 73.65Q392.89 73.65 393.95 72.68Q395.01 71.71 395.01 70.03L395.01 70.03Q395.01 68.29 393.95 67.20Q392.89 66.11 391.06 66.11L391.06 66.11L387.47 66.11Z"/><path fill="#8b949e" d="M415.71 76L402.08 76L402.08 73.62L407.74 73.62L407.74 62.43L402.66 62.43L402.66 60.05L410.35 60.05L410.35 73.62L415.71 73.62L415.71 76ZM408.75 57.18L408.75 57.18Q407.80 57.18 407.25 56.69Q406.70 56.19 406.70 55.35L406.70 55.35Q406.70 54.48 407.25 53.97Q407.80 53.47 408.75 53.47L408.75 53.47Q409.71 53.47 410.26 53.97Q410.81 54.48 410.81 55.35L410.81 55.35Q410.81 56.19 410.26 56.69Q409.71 57.18 408.75 57.18Z"/><path fill="#8b949e" d="M424.79 76.29L424.79 76.29Q422.41 76.29 420.98 74.69Q419.54 73.10 419.54 70.37L419.54 70.37L419.54 65.70Q419.54 62.95 420.96 61.35Q422.38 59.76 424.79 59.76L424.79 59.76Q426.59 59.76 427.76 60.66Q428.94 61.56 429.17 63.09L429.17 63.09L429.20 63.09L429.14 59.47L429.14 54.83L431.75 54.83L431.75 76L429.14 76L429.14 72.95L429.11 72.95Q428.91 74.52 427.75 75.41Q426.59 76.29 424.79 76.29ZM425.66 74.03L425.66 74.03Q427.29 74.03 428.21 73.01Q429.14 72.00 429.14 70.20L429.14 70.20L429.14 65.85Q429.14 64.05 428.21 63.04Q427.29 62.02 425.66 62.02L425.66 62.02Q424.01 62.02 423.08 62.88Q422.15 63.73 422.15 65.70L422.15 65.70L422.15 70.34Q422.15 72.29 423.08 73.16Q424.01 74.03 425.66 74.03Z"/><path fill="#8b949e" d="M450.51 76L436.88 76L436.88 73.62L442.54 73.62L442.54 62.43L437.46 62.43L437.46 60.05L445.15 60.05L445.15 73.62L450.51 73.62L450.51 76ZM443.55 57.18L443.55 57.18Q442.60 57.18 442.05 56.69Q441.50 56.19 441.50 55.35L441.50 55.35Q441.50 54.48 442.05 53.97Q442.60 53.47 443.55 53.47L443.55 53.47Q444.51 53.47 445.06 53.97Q445.61 54.48 445.61 55.35L445.61 55.35Q445.61 56.19 445.06 56.69Q444.51 57.18 443.55 57.18Z"/><path fill="#8b949e" d="M457.68 76L455.07 76L455.07 60.05L457.68 60.05L457.68 63.09L457.74 63.09Q457.94 61.56 459.04 60.66Q460.14 59.76 462.00 59.76L462.00 59.76Q464.49 59.76 465.84 61.25Q467.19 62.75 467.19 65.50L467.19 65.50L467.19 66.86L464.58 66.86L464.58 65.50Q464.58 62.02 461.19 62.02L461.19 62.02Q459.48 62.02 458.58 63.01Q457.68 63.99 457.68 65.85L457.68 65.85L457.68 76Z"/><path fill="#8b949e" d="M477.92 76.29L477.92 76.29Q475.11 76.29 473.38 74.59Q471.66 72.90 471.66 69.91L471.66 69.91L471.66 66.14Q471.66 63.15 473.38 61.46Q475.11 59.76 477.92 59.76L477.92 59.76Q479.80 59.76 481.21 60.51Q482.62 61.27 483.40 62.63Q484.18 63.99 484.18 65.85L484.18 65.85L484.18 68.69L474.21 68.69L474.21 70.20Q474.21 71.97 475.22 73.00Q476.24 74.03 477.92 74.03L477.92 74.03Q479.37 74.03 480.31 73.46Q481.25 72.90 481.46 71.94L481.46 71.94L484.07 71.94Q483.81 73.94 482.12 75.12Q480.44 76.29 477.92 76.29ZM474.21 65.85L474.21 66.66L481.63 66.66L481.63 65.85Q481.63 63.97 480.66 62.94Q479.69 61.91 477.92 61.91L477.92 61.91Q476.15 61.91 475.18 62.94Q474.21 63.97 474.21 65.85L474.21 65.85Z"/><path fill="#8b949e" d="M495.55 76.29L495.55 76.29Q492.65 76.29 490.91 74.67Q489.17 73.04 489.17 70.20L489.17 70.20L489.17 65.85Q489.17 63.01 490.91 61.38Q492.65 59.76 495.55 59.76L495.55 59.76Q498.31 59.76 500.00 61.24Q501.70 62.72 501.79 65.27L501.79 65.27L499.18 65.27Q499.09 63.73 498.13 62.91Q497.18 62.08 495.55 62.08L495.55 62.08Q493.84 62.08 492.81 63.05Q491.78 64.02 491.78 65.82L491.78 65.82L491.78 70.20Q491.78 72.00 492.81 72.98Q493.84 73.97 495.55 73.97L495.55 73.97Q497.18 73.97 498.13 73.13Q499.09 72.29 499.18 70.78L499.18 70.78L501.79 70.78Q501.70 73.33 500.00 74.81Q498.31 76.29 495.55 76.29Z"/><path fill="#8b949e" d="M518.95 76L514.31 76Q512.34 76 511.15 74.85Q509.96 73.71 509.96 71.80L509.96 71.80L509.96 62.43L505.38 62.43L505.38 60.05L509.96 60.05L509.96 55.55L512.57 55.55L512.57 60.05L519.10 60.05L519.10 62.43L512.57 62.43L512.57 71.80Q512.57 72.61 513.05 73.11Q513.53 73.62 514.31 73.62L514.31 73.62L518.95 73.62L518.95 76Z"/><path fill="#8b949e" d="M537.51 76L523.88 76L523.88 73.62L529.54 73.62L529.54 62.43L524.46 62.43L524.46 60.05L532.15 60.05L532.15 73.62L537.51 73.62L537.51 76ZM530.55 57.18L530.55 57.18Q529.60 57.18 529.05 56.69Q528.50 56.19 528.50 55.35L528.50 55.35Q528.50 54.48 529.05 53.97Q529.60 53.47 530.55 53.47L530.55 53.47Q531.51 53.47 532.06 53.97Q532.61 54.48 532.61 55.35L532.61 55.35Q532.61 56.19 532.06 56.69Q531.51 57.18 530.55 57.18Z"/><path fill="#8b949e" d="M547.52 76.23L547.52 76.23Q544.65 76.23 542.95 74.55Q541.26 72.87 541.26 69.85L541.26 69.85L541.26 66.20Q541.26 63.15 542.94 61.49Q544.62 59.82 547.52 59.82L547.52 59.82Q550.42 59.82 552.10 61.49Q553.78 63.15 553.78 66.20L553.78 66.20L553.78 69.85Q553.78 72.87 552.09 74.55Q550.39 76.23 547.52 76.23ZM547.52 73.91L547.52 73.91Q549.23 73.91 550.20 72.95Q551.17 72.00 551.17 70.14L551.17 70.14L551.17 65.91Q551.17 64.05 550.20 63.09Q549.23 62.14 547.52 62.14L547.52 62.14Q545.84 62.14 544.85 63.09Q543.87 64.05 543.87 65.91L543.87 65.91L543.87 70.14Q543.87 72.00 544.85 72.95Q545.84 73.91 547.52 73.91Z"/><path fill="#8b949e" d="M561.50 76L558.89 76L558.89 60.05L561.50 60.05L561.50 63.09L561.53 63.09Q561.73 61.50 562.83 60.63Q563.93 59.76 565.76 59.76L565.76 59.76Q568.17 59.76 569.59 61.24Q571.01 62.72 571.01 65.27L571.01 65.27L571.01 76L568.40 76L568.40 65.73Q568.40 63.91 567.49 62.94Q566.57 61.96 565.01 61.96L565.01 61.96Q563.38 61.96 562.44 62.98Q561.50 63.99 561.50 65.85L561.50 65.85L561.50 76Z"/><path fill="#8b949e" d="M580.93 76.29L580.93 76.29Q578.46 76.29 577.01 74.91Q575.56 73.53 575.56 71.30L575.56 71.30Q575.56 69.82 576.23 68.72Q576.90 67.62 578.09 67.00Q579.27 66.37 580.81 66.37L580.81 66.37L585.74 66.37L585.74 65.13Q585.74 62.02 582.35 62.02L582.35 62.02Q580.84 62.02 579.91 62.57Q578.98 63.12 578.93 64.11L578.93 64.11L576.32 64.11Q576.46 62.23 578.07 60.99Q579.68 59.76 582.35 59.76L582.35 59.76Q585.25 59.76 586.80 61.15Q588.35 62.54 588.35 65.04L588.35 65.04L588.35 76L585.77 76L585.77 73.10L585.71 73.10Q585.48 74.58 584.23 75.43Q582.99 76.29 580.93 76.29ZM581.57 74.09L581.57 74.09Q583.48 74.09 584.61 73.16Q585.74 72.23 585.74 70.64L585.74 70.64L585.74 68.40L581.10 68.40Q579.83 68.40 579.03 69.17Q578.23 69.94 578.23 71.22L578.23 71.22Q578.23 72.55 579.12 73.32Q580.00 74.09 581.57 74.09Z"/><path fill="#8b949e" d="M606.97 76L602.04 76Q599.92 76 598.66 74.77Q597.40 73.53 597.40 71.50L597.40 71.50L597.40 57.21L591.89 57.21L591.89 54.83L600.01 54.83L600.01 71.50Q600.01 72.49 600.56 73.06Q601.11 73.62 602.04 73.62L602.04 73.62L606.97 73.62L606.97 76Z"/><path fill="#8b949e" d="M634.95 76L628.52 76L628.52 54.83L634.52 54.83Q637.42 54.83 639.06 56.28Q640.70 57.73 640.70 60.31L640.70 60.31Q640.70 61.94 639.67 63.24Q638.64 64.55 636.98 64.86L636.98 64.86L636.98 64.95Q638.23 65.10 639.17 65.82Q640.12 66.55 640.65 67.66Q641.19 68.78 641.19 70.11L641.19 70.11Q641.19 72.84 639.52 74.42Q637.85 76 634.95 76L634.95 76ZM631.07 57.18L631.07 63.85L634.49 63.85Q636.17 63.85 637.14 62.95Q638.12 62.05 638.12 60.51L638.12 60.51Q638.12 58.98 637.16 58.08Q636.20 57.18 634.52 57.18L634.52 57.18L631.07 57.18ZM631.07 66.11L631.07 73.65L634.66 73.65Q636.49 73.65 637.55 72.68Q638.61 71.71 638.61 70.03L638.61 70.03Q638.61 68.29 637.55 67.20Q636.49 66.11 634.66 66.11L634.66 66.11L631.07 66.11Z"/><path fill="#8b949e" d="M648.58 76L645.97 76L645.97 54.83L658.44 54.83L658.44 57.21L648.53 57.21L648.53 64.23L657.69 64.23L657.69 66.60L648.58 66.60L648.58 76Z"/><path fill="#8b949e" d="M669.44 76.29L669.44 76.29Q666.36 76.29 664.53 74.67Q662.71 73.04 662.71 70.20L662.71 70.20L665.32 70.20Q665.32 71.97 666.45 72.97Q667.58 73.97 669.44 73.97L669.44 73.97Q671.23 73.97 672.31 72.93Q673.38 71.88 673.38 70.20L673.38 70.20Q673.38 68.92 672.70 67.98Q672.02 67.04 670.74 66.69L670.74 66.69L667.52 65.79Q665.52 65.21 664.38 63.72Q663.23 62.23 663.23 60.20L663.23 60.20Q663.23 58.51 663.98 57.24Q664.74 55.96 666.10 55.25Q667.46 54.54 669.23 54.54L669.23 54.54Q671.03 54.54 672.41 55.25Q673.79 55.96 674.57 57.22Q675.35 58.48 675.35 60.14L675.35 60.14L672.74 60.14Q672.74 58.69 671.76 57.77Q670.77 56.86 669.23 56.86L669.23 56.86Q667.70 56.86 666.74 57.77Q665.78 58.69 665.78 60.14L665.78 60.14Q665.78 61.30 666.41 62.12Q667.03 62.95 668.16 63.27L668.16 63.27L671.47 64.20Q673.58 64.78 674.76 66.39Q675.93 68.00 675.93 70.20L675.93 70.20Q675.93 72.98 674.16 74.64Q672.39 76.29 669.44 76.29Z"/><path fill="#8b949e" d="M686.72 76.29L686.72 76.29Q685.65 76.29 684.99 75.65Q684.34 75.01 684.34 74.00L684.34 74.00Q684.34 72.93 684.99 72.26Q685.65 71.59 686.72 71.59L686.72 71.59Q687.79 71.59 688.45 72.26Q689.10 72.93 689.10 74.00L689.10 74.00Q689.10 75.01 688.45 75.65Q687.79 76.29 686.72 76.29Z"/><path fill="#8b949e" d="M11.31 116L0.00 116L0.00 113.62L4.32 113.62L4.32 97.21L0.00 97.21L0.00 94.83L11.31 94.83L11.31 97.21L6.99 97.21L6.99 113.62L11.31 113.62L11.31 116Z"/><path fill="#8b949e" d="M19.63 116L17.02 116L17.02 100.05L19.63 100.05L19.63 103.09L19.66 103.09Q19.87 101.50 20.97 100.63Q22.07 99.76 23.90 99.76L23.90 99.76Q26.30 99.76 27.72 101.24Q29.15 102.72 29.15 105.27L29.15 105.27L29.15 116L26.54 116L26.54 105.73Q26.54 103.91 25.62 102.94Q24.71 101.96 23.14 101.96L23.14 101.96Q21.52 101.96 20.58 102.98Q19.63 103.99 19.63 105.85L19.63 105.85L19.63 116Z"/><path fill="#8b949e" d="M46.69 116L42.05 116Q40.08 116 38.89 114.85Q37.70 113.71 37.70 111.80L37.70 111.80L37.70 102.43L33.12 102.43L33.12 100.05L37.70 100.05L37.70 95.56L40.31 95.56L40.31 100.05L46.84 100.05L46.84 102.43L40.31 102.43L40.31 111.80Q40.31 112.61 40.79 113.11Q41.27 113.62 42.05 113.62L42.05 113.62L46.69 113.62L46.69 116Z"/><path fill="#8b949e" d="M57.86 116.29L57.86 116.29Q55.04 116.29 53.32 114.59Q51.59 112.90 51.59 109.91L51.59 109.91L51.59 106.14Q51.59 103.15 53.32 101.46Q55.04 99.76 57.86 99.76L57.86 99.76Q59.74 99.76 61.15 100.51Q62.55 101.27 63.34 102.63Q64.12 103.99 64.12 105.85L64.12 105.85L64.12 108.69L54.14 108.69L54.14 110.20Q54.14 111.97 55.16 113.00Q56.17 114.03 57.86 114.03L57.86 114.03Q59.30 114.03 60.25 113.46Q61.19 112.90 61.39 111.94L61.39 111.94L64.00 111.94Q63.74 113.94 62.06 115.12Q60.38 116.29 57.86 116.29ZM54.14 105.85L54.14 106.66L61.57 106.66L61.57 105.85Q61.57 103.97 60.60 102.94Q59.62 101.91 57.86 101.91L57.86 101.91Q56.09 101.91 55.11 102.94Q54.14 103.97 54.14 105.85L54.14 105.85Z"/><path fill="#8b949e" d="M72.41 116L69.80 116L69.80 100.05L72.41 100.05L72.41 103.09L72.47 103.09Q72.67 101.56 73.78 100.66Q74.88 99.76 76.73 99.76L76.73 99.76Q79.23 99.76 80.58 101.25Q81.93 102.75 81.93 105.50L81.93 105.50L81.93 106.86L79.32 106.86L79.32 105.50Q79.32 102.02 75.92 102.02L75.92 102.02Q74.21 102.02 73.31 103.01Q72.41 103.99 72.41 105.85L72.41 105.85L72.41 116Z"/><path fill="#8b949e" d="M91.26 116.29L91.26 116.29Q88.80 116.29 87.35 114.91Q85.90 113.53 85.90 111.30L85.90 111.30Q85.90 109.82 86.57 108.72Q87.23 107.62 88.42 107.00Q89.61 106.37 91.15 106.37L91.15 106.37L96.08 106.37L96.08 105.13Q96.08 102.02 92.68 102.02L92.68 102.02Q91.18 102.02 90.25 102.57Q89.32 103.12 89.26 104.11L89.26 104.11L86.65 104.11Q86.80 102.22 88.41 100.99Q90.02 99.76 92.68 99.76L92.68 99.76Q95.58 99.76 97.14 101.15Q98.69 102.54 98.69 105.04L98.69 105.04L98.69 116L96.11 116L96.11 113.10L96.05 113.10Q95.82 114.58 94.57 115.43Q93.32 116.29 91.26 116.29ZM91.90 114.09L91.90 114.09Q93.82 114.09 94.95 113.16Q96.08 112.23 96.08 110.64L96.08 110.64L96.08 108.40L91.44 108.40Q90.16 108.40 89.36 109.17Q88.57 109.94 88.57 111.22L88.57 111.22Q88.57 112.55 89.45 113.32Q90.34 114.09 91.90 114.09Z"/><path fill="#8b949e" d="M110.29 116.29L110.29 116.29Q107.39 116.29 105.65 114.67Q103.91 113.04 103.91 110.20L103.91 110.20L103.91 105.85Q103.91 103.01 105.65 101.38Q107.39 99.76 110.29 99.76L110.29 99.76Q113.04 99.76 114.74 101.24Q116.44 102.72 116.52 105.27L116.52 105.27L113.91 105.27Q113.83 103.73 112.87 102.91Q111.91 102.08 110.29 102.08L110.29 102.08Q108.58 102.08 107.55 103.05Q106.52 104.02 106.52 105.82L106.52 105.82L106.52 110.20Q106.52 112.00 107.55 112.98Q108.58 113.97 110.29 113.97L110.29 113.97Q111.91 113.97 112.87 113.13Q113.83 112.29 113.91 110.78L113.91 110.78L116.52 110.78Q116.44 113.33 114.74 114.81Q113.04 116.29 110.29 116.29Z"/><path fill="#8b949e" d="M133.69 116L129.05 116Q127.08 116 125.89 114.85Q124.70 113.71 124.70 111.80L124.70 111.80L124.70 102.43L120.12 102.43L120.12 100.05L124.70 100.05L124.70 95.56L127.31 95.56L127.31 100.05L133.84 100.05L133.84 102.43L127.31 102.43L127.31 111.80Q127.31 112.61 127.79 113.11Q128.27 113.62 129.05 113.62L129.05 113.62L133.69 113.62L133.69 116Z"/><path fill="#8b949e" d="M152.25 116L138.62 116L138.62 113.62L144.28 113.62L144.28 102.43L139.20 102.43L139.20 100.05L146.89 100.05L146.89 113.62L152.25 113.62L152.25 116ZM145.29 97.18L145.29 97.18Q144.33 97.18 143.78 96.69Q143.23 96.19 143.23 95.35L143.23 95.35Q143.23 94.48 143.78 93.97Q144.33 93.47 145.29 93.47L145.29 93.47Q146.25 93.47 146.80 93.97Q147.35 94.48 147.35 95.35L147.35 95.35Q147.35 96.19 146.80 96.69Q146.25 97.18 145.29 97.18Z"/><path fill="#8b949e" d="M163.97 116L160.54 116L155.12 100.05L157.93 100.05L161.41 110.78Q161.73 111.74 161.97 112.62Q162.20 113.51 162.31 114.00L162.31 114.00Q162.46 113.51 162.66 112.62Q162.86 111.74 163.15 110.78L163.15 110.78L166.63 100.05L169.39 100.05L163.97 116Z"/><path fill="#8b949e" d="M179.66 116.29L179.66 116.29Q176.84 116.29 175.12 114.59Q173.39 112.90 173.39 109.91L173.39 109.91L173.39 106.14Q173.39 103.15 175.12 101.46Q176.84 99.76 179.66 99.76L179.66 99.76Q181.54 99.76 182.95 100.51Q184.35 101.27 185.14 102.63Q185.92 103.99 185.92 105.85L185.92 105.85L185.92 108.69L175.94 108.69L175.94 110.20Q175.94 111.97 176.96 113.00Q177.97 114.03 179.66 114.03L179.66 114.03Q181.11 114.03 182.05 113.46Q182.99 112.90 183.19 111.94L183.19 111.94L185.80 111.94Q185.54 113.94 183.86 115.12Q182.18 116.29 179.66 116.29ZM175.94 105.85L175.94 106.66L183.37 106.66L183.37 105.85Q183.37 103.97 182.40 102.94Q181.42 101.91 179.66 101.91L179.66 101.91Q177.89 101.91 176.91 102.94Q175.94 103.97 175.94 105.85L175.94 105.85Z"/><path fill="#8b949e" d="M214.89 121.22L210.42 121.22L210.42 118.84L214.92 118.84Q216.28 118.84 217.07 118.07Q217.85 117.31 217.85 116L217.85 116L217.85 114.55L217.91 111.94L217.82 111.94Q217.59 113.36 216.46 114.13Q215.33 114.90 213.61 114.90L213.61 114.90Q211.15 114.90 209.73 113.33Q208.31 111.77 208.31 109.04L208.31 109.04L208.31 105.68Q208.31 102.95 209.73 101.36Q211.15 99.76 213.61 99.76L213.61 99.76Q215.33 99.76 216.46 100.57Q217.59 101.38 217.82 102.81L217.82 102.81L217.88 102.81L217.88 100.05L220.46 100.05L220.46 116Q220.46 118.41 218.96 119.81Q217.47 121.22 214.89 121.22L214.89 121.22ZM214.40 112.72L214.40 112.72Q216.02 112.72 216.95 111.71Q217.88 110.69 217.88 108.89L217.88 108.89L217.88 105.85Q217.88 104.05 216.95 103.04Q216.02 102.02 214.40 102.02L214.40 102.02Q212.74 102.02 211.83 102.98Q210.92 103.94 210.92 105.56L210.92 105.56L210.92 109.19Q210.92 110.81 211.83 111.77Q212.74 112.72 214.40 112.72Z"/><path fill="#8b949e" d="M229.01 116L226.40 116L226.40 100.05L229.01 100.05L229.01 103.09L229.07 103.09Q229.27 101.56 230.38 100.66Q231.48 99.76 233.33 99.76L233.33 99.76Q235.83 99.76 237.18 101.25Q238.53 102.75 238.53 105.50L238.53 105.50L238.53 106.86L235.92 106.86L235.92 105.50Q235.92 102.02 232.52 102.02L232.52 102.02Q230.81 102.02 229.91 103.01Q229.01 103.99 229.01 105.85L229.01 105.85L229.01 116Z"/><path fill="#8b949e" d="M247.86 116.29L247.86 116.29Q245.40 116.29 243.95 114.91Q242.50 113.53 242.50 111.30L242.50 111.30Q242.50 109.82 243.17 108.72Q243.83 107.62 245.02 107.00Q246.21 106.37 247.75 106.37L247.75 106.37L252.68 106.37L252.68 105.13Q252.68 102.02 249.28 102.02L249.28 102.02Q247.78 102.02 246.85 102.57Q245.92 103.12 245.86 104.11L245.86 104.11L243.25 104.11Q243.40 102.22 245.01 100.99Q246.62 99.76 249.28 99.76L249.28 99.76Q252.18 99.76 253.74 101.15Q255.29 102.54 255.29 105.04L255.29 105.04L255.29 116L252.71 116L252.71 113.10L252.65 113.10Q252.42 114.58 251.17 115.43Q249.92 116.29 247.86 116.29ZM248.50 114.09L248.50 114.09Q250.42 114.09 251.55 113.16Q252.68 112.23 252.68 110.64L252.68 110.64L252.68 108.40L248.04 108.40Q246.76 108.40 245.96 109.17Q245.17 109.94 245.17 111.22L245.17 111.22Q245.17 112.55 246.05 113.32Q246.94 114.09 248.50 114.09Z"/><path fill="#8b949e" d="M263.23 121.22L260.62 121.22L260.62 100.05L263.23 100.05L263.23 103.09L263.26 103.09Q263.47 101.53 264.63 100.64Q265.79 99.76 267.58 99.76L267.58 99.76Q269.99 99.76 271.41 101.34Q272.83 102.92 272.83 105.68L272.83 105.68L272.83 110.34Q272.83 113.10 271.41 114.69Q269.99 116.29 267.58 116.29L267.58 116.29Q265.79 116.29 264.63 115.39Q263.47 114.49 263.26 112.95L263.26 112.95L263.18 112.95L263.23 116.58L263.23 121.22ZM266.71 114.03L266.71 114.03Q268.37 114.03 269.29 113.16Q270.22 112.29 270.22 110.34L270.22 110.34L270.22 105.70Q270.22 103.73 269.29 102.88Q268.37 102.02 266.71 102.02L266.71 102.02Q265.12 102.02 264.18 103.04Q263.23 104.05 263.23 105.85L263.23 105.85L263.23 110.20Q263.23 112.00 264.18 113.01Q265.12 114.03 266.71 114.03Z"/><path fill="#8b949e" d="M280.63 116L278.02 116L278.02 94.83L280.63 94.83L280.63 103.09L280.66 103.09Q280.87 101.50 281.97 100.63Q283.07 99.76 284.90 99.76L284.90 99.76Q287.30 99.76 288.72 101.24Q290.15 102.72 290.15 105.27L290.15 105.27L290.15 116L287.54 116L287.54 105.70Q287.54 103.91 286.62 102.94Q285.71 101.96 284.14 101.96L284.14 101.96Q282.52 101.96 281.58 102.98Q280.63 103.99 280.63 105.85L280.63 105.85L280.63 116Z"/><path fill="#8b949e" d="M320.57 116L317.14 116L311.72 100.05L314.53 100.05L318.01 110.78Q318.33 111.74 318.56 112.62Q318.80 113.51 318.91 114.00L318.91 114.00Q319.06 113.51 319.26 112.62Q319.46 111.74 319.75 110.78L319.75 110.78L323.23 100.05L325.99 100.05L320.57 116Z"/><path fill="#8b949e" d="M343.65 116L330.02 116L330.02 113.62L335.67 113.62L335.67 102.43L330.60 102.43L330.60 100.05L338.28 100.05L338.28 113.62L343.65 113.62L343.65 116ZM336.69 97.18L336.69 97.18Q335.73 97.18 335.18 96.69Q334.63 96.19 334.63 95.35L334.63 95.35Q334.63 94.48 335.18 93.97Q335.73 93.47 336.69 93.47L336.69 93.47Q337.65 93.47 338.20 93.97Q338.75 94.48 338.75 95.35L338.75 95.35Q338.75 96.19 338.20 96.69Q337.65 97.18 336.69 97.18Z"/><path fill="#8b949e" d="M354.29 116.23L353.02 116.23Q350.35 116.23 348.88 115.03Q347.42 113.83 347.42 111.62L347.42 111.62L350.03 111.62Q350.03 112.72 350.81 113.35Q351.60 113.97 353.02 113.97L353.02 113.97L354.29 113.97Q355.74 113.97 356.54 113.33Q357.34 112.69 357.34 111.53L357.34 111.53Q357.34 109.47 355.45 109.21L355.45 109.21L351.04 108.58Q349.42 108.34 348.52 107.23Q347.62 106.11 347.62 104.28L347.62 104.28Q347.62 102.20 349.06 101.01Q350.49 99.82 353.02 99.82L353.02 99.82L354.29 99.82Q356.61 99.82 358.08 100.96Q359.54 102.11 359.66 103.97L359.66 103.97L357.02 103.97Q356.96 103.12 356.22 102.57Q355.48 102.02 354.29 102.02L354.29 102.02L353.02 102.02Q351.68 102.02 350.93 102.63Q350.17 103.24 350.17 104.28L350.17 104.28Q350.17 105.97 351.71 106.20L351.71 106.20L355.83 106.78Q359.89 107.36 359.89 111.53L359.89 111.53Q359.89 113.77 358.43 115.00Q356.96 116.23 354.29 116.23L354.29 116.23Z"/><path fill="#8b949e" d="M371.03 116.29L371.03 116.29Q368.27 116.29 366.62 114.65Q364.96 113.01 364.96 110.20L364.96 110.20L364.96 100.05L367.57 100.05L367.57 110.20Q367.57 111.94 368.50 112.97Q369.43 114.00 371.03 114.00L371.03 114.00Q372.65 114.00 373.59 112.97Q374.53 111.94 374.53 110.20L374.53 110.20L374.53 100.05L377.14 100.05L377.14 110.20Q377.14 113.01 375.46 114.65Q373.78 116.29 371.03 116.29Z"/><path fill="#8b949e" d="M387.06 116.29L387.06 116.29Q384.60 116.29 383.15 114.91Q381.70 113.53 381.70 111.30L381.70 111.30Q381.70 109.82 382.36 108.72Q383.03 107.62 384.22 107.00Q385.41 106.37 386.95 106.37L386.95 106.37L391.88 106.37L391.88 105.13Q391.88 102.02 388.48 102.02L388.48 102.02Q386.98 102.02 386.05 102.57Q385.12 103.12 385.06 104.11L385.06 104.11L382.45 104.11Q382.60 102.22 384.21 100.99Q385.82 99.76 388.48 99.76L388.48 99.76Q391.38 99.76 392.94 101.15Q394.49 102.54 394.49 105.04L394.49 105.04L394.49 116L391.91 116L391.91 113.10L391.85 113.10Q391.62 114.58 390.37 115.43Q389.12 116.29 387.06 116.29ZM387.70 114.09L387.70 114.09Q389.61 114.09 390.75 113.16Q391.88 112.23 391.88 110.64L391.88 110.64L391.88 108.40L387.24 108.40Q385.96 108.40 385.16 109.17Q384.37 109.94 384.37 111.22L384.37 111.22Q384.37 112.55 385.25 113.32Q386.13 114.09 387.70 114.09Z"/><path fill="#8b949e" d="M413.10 116L408.17 116Q406.06 116 404.80 114.77Q403.53 113.53 403.53 111.50L403.53 111.50L403.53 97.21L398.02 97.21L398.02 94.83L406.14 94.83L406.14 111.50Q406.14 112.49 406.70 113.06Q407.25 113.62 408.17 113.62L408.17 113.62L413.10 113.62L413.10 116Z"/><path fill="#8b949e" d="M430.65 116L417.02 116L417.02 113.62L422.67 113.62L422.67 102.43L417.60 102.43L417.60 100.05L425.28 100.05L425.28 113.62L430.65 113.62L430.65 116ZM423.69 97.18L423.69 97.18Q422.73 97.18 422.18 96.69Q421.63 96.19 421.63 95.35L421.63 95.35Q421.63 94.48 422.18 93.97Q422.73 93.47 423.69 93.47L423.69 93.47Q424.65 93.47 425.20 93.97Q425.75 94.48 425.75 95.35L425.75 95.35Q425.75 96.19 425.20 96.69Q424.65 97.18 423.69 97.18Z"/><path fill="#8b949e" d="M446.74 116L434.56 116L434.56 113.39L443.50 102.43L434.80 102.43L434.80 100.05L446.43 100.05L446.43 102.66L437.32 113.62L446.74 113.62L446.74 116Z"/><path fill="#8b949e" d="M456.66 116.29L456.66 116.29Q454.20 116.29 452.75 114.91Q451.30 113.53 451.30 111.30L451.30 111.30Q451.30 109.82 451.96 108.72Q452.63 107.62 453.82 107.00Q455.01 106.37 456.55 106.37L456.55 106.37L461.48 106.37L461.48 105.13Q461.48 102.02 458.08 102.02L458.08 102.02Q456.58 102.02 455.65 102.57Q454.72 103.12 454.66 104.11L454.66 104.11L452.05 104.11Q452.20 102.22 453.81 100.99Q455.42 99.76 458.08 99.76L458.08 99.76Q460.98 99.76 462.54 101.15Q464.09 102.54 464.09 105.04L464.09 105.04L464.09 116L461.51 116L461.51 113.10L461.45 113.10Q461.22 114.58 459.97 115.43Q458.72 116.29 456.66 116.29ZM457.30 114.09L457.30 114.09Q459.21 114.09 460.35 113.16Q461.48 112.23 461.48 110.64L461.48 110.64L461.48 108.40L456.84 108.40Q455.56 108.40 454.76 109.17Q453.97 109.94 453.97 111.22L453.97 111.22Q453.97 112.55 454.85 113.32Q455.73 114.09 457.30 114.09Z"/><path fill="#8b949e" d="M481.69 116L477.05 116Q475.08 116 473.89 114.85Q472.70 113.71 472.70 111.80L472.70 111.80L472.70 102.43L468.12 102.43L468.12 100.05L472.70 100.05L472.70 95.56L475.31 95.56L475.31 100.05L481.83 100.05L481.83 102.43L475.31 102.43L475.31 111.80Q475.31 112.61 475.79 113.11Q476.27 113.62 477.05 113.62L477.05 113.62L481.69 113.62L481.69 116Z"/><path fill="#8b949e" d="M500.25 116L486.62 116L486.62 113.62L492.27 113.62L492.27 102.43L487.20 102.43L487.20 100.05L494.88 100.05L494.88 113.62L500.25 113.62L500.25 116ZM493.29 97.18L493.29 97.18Q492.33 97.18 491.78 96.69Q491.23 96.19 491.23 95.35L491.23 95.35Q491.23 94.48 491.78 93.97Q492.33 93.47 493.29 93.47L493.29 93.47Q494.25 93.47 494.80 93.97Q495.35 94.48 495.35 95.35L495.35 95.35Q495.35 96.19 494.80 96.69Q494.25 97.18 493.29 97.18Z"/><path fill="#8b949e" d="M510.25 116.23L510.25 116.23Q507.38 116.23 505.69 114.55Q503.99 112.87 503.99 109.85L503.99 109.85L503.99 106.20Q503.99 103.15 505.67 101.49Q507.35 99.82 510.25 99.82L510.25 99.82Q513.15 99.82 514.84 101.49Q516.52 103.15 516.52 106.20L516.52 106.20L516.52 109.85Q516.52 112.87 514.82 114.55Q513.13 116.23 510.25 116.23ZM510.25 113.91L510.25 113.91Q511.97 113.91 512.94 112.95Q513.91 112.00 513.91 110.14L513.91 110.14L513.91 105.91Q513.91 104.05 512.94 103.09Q511.97 102.14 510.25 102.14L510.25 102.14Q508.57 102.14 507.59 103.09Q506.60 104.05 506.60 105.91L506.60 105.91L506.60 110.14Q506.60 112.00 507.59 112.95Q508.57 113.91 510.25 113.91Z"/><path fill="#8b949e" d="M524.23 116L521.62 116L521.62 100.05L524.23 100.05L524.23 103.09L524.26 103.09Q524.46 101.50 525.57 100.63Q526.67 99.76 528.50 99.76L528.50 99.76Q530.90 99.76 532.32 101.24Q533.74 102.72 533.74 105.27L533.74 105.27L533.74 116L531.13 116L531.13 105.73Q531.13 103.91 530.22 102.94Q529.31 101.96 527.74 101.96L527.74 101.96Q526.12 101.96 525.18 102.98Q524.23 103.99 524.23 105.85L524.23 105.85L524.23 116Z"/><path fill="#8b949e" d="M545.05 116.29L545.05 116.29Q543.98 116.29 543.33 115.65Q542.68 115.01 542.68 114.00L542.68 114.00Q542.68 112.93 543.33 112.26Q543.98 111.59 545.05 111.59L545.05 111.59Q546.13 111.59 546.78 112.26Q547.43 112.93 547.43 114.00L547.43 114.00Q547.43 115.01 546.78 115.65Q546.13 116.29 545.05 116.29Z"/>
    <rect x="0" y="152" width="56" height="2" fill="#3fb950"/>
    <rect x="64" y="152" width="20" height="2" fill="#58a6ff"/>
    <rect x="92" y="152" width="20" height="2" fill="#f85149"/>
  </g>

  <g transform="translate(74 548)">
    <path fill="#6e7681" d="M2.80 0L1.22 0L0-10.22L1.16-10.22L1.96-2.66Q2.02-2.20 2.04-1.70Q2.07-1.20 2.09-0.91L2.09-0.91Q2.11-1.20 2.16-1.70Q2.21-2.20 2.27-2.66L2.27-2.66L3.28-10.22L4.63-10.22L5.56-2.66Q5.61-2.20 5.67-1.70Q5.73-1.20 5.75-0.91L5.75-0.91Q5.78-1.20 5.82-1.70Q5.85-2.20 5.91-2.66L5.91-2.66L6.73-10.22L7.84-10.22L6.59 0L5.01 0L4.09-7.70Q4.03-8.18 4.00-8.63Q3.98-9.09 3.95-9.34L3.95-9.34Q3.92-9.09 3.89-8.63Q3.86-8.18 3.79-7.70L3.79-7.70L2.80 0Z"/><path fill="#6e7681" d="M17.57 0L12.11 0L12.11-1.15L14.20-1.15L14.20-9.07L12.11-9.07L12.11-10.22L17.57-10.22L17.57-9.07L15.48-9.07L15.48-1.15L17.57-1.15L17.57 0Z"/><path fill="#6e7681" d="M24.11 0L22.85 0L22.85-10.22L24.11-10.22L24.11-5.82L25.62-5.82L27.89-10.22L29.26-10.22L26.73-5.29L29.40 0L27.96 0L25.58-4.72L24.11-4.72L24.11 0Z"/><path fill="#6e7681" d="M39.41 0L33.95 0L33.95-1.15L36.04-1.15L36.04-9.07L33.95-9.07L33.95-10.22L39.41-10.22L39.41-9.07L37.32-9.07L37.32-1.15L39.41-1.15L39.41 0Z"/><path fill="#6e7681" d="M45.95 0L44.69 0L44.69-10.22L47.98-10.22Q49.41-10.22 50.25-9.40Q51.10-8.58 51.10-7.21L51.10-7.21Q51.10-5.84 50.25-5.02Q49.41-4.20 47.98-4.20L47.98-4.20L45.95-4.20L45.95 0ZM45.95-9.09L45.95-5.33L47.98-5.33Q48.80-5.33 49.30-5.84Q49.80-6.36 49.80-7.21L49.80-7.21Q49.80-8.08 49.30-8.58Q48.80-9.09 47.98-9.09L47.98-9.09L45.95-9.09Z"/><path fill="#6e7681" d="M61.60 0L55.72 0L55.72-10.22L61.60-10.22L61.60-9.07L56.97-9.07L56.97-5.91L61.11-5.91L61.11-4.79L56.97-4.79L56.97-1.15L61.60-1.15L61.60 0Z"/><path fill="#6e7681" d="M69.17 0L66.53 0L66.53-10.22L69.17-10.22Q70.17-10.22 70.89-9.84Q71.61-9.46 72.01-8.78Q72.41-8.09 72.41-7.15L72.41-7.15L72.41-3.08Q72.41-2.14 72.01-1.45Q71.61-0.76 70.89-0.38Q70.17 0 69.17 0L69.17 0ZM67.79-9.10L67.79-1.12L69.17-1.12Q70.10-1.12 70.62-1.64Q71.15-2.16 71.15-3.08L71.15-3.08L71.15-7.15Q71.15-8.06 70.62-8.58Q70.10-9.10 69.17-9.10L69.17-9.10L67.79-9.10Z"/><path fill="#6e7681" d="M83.09 0L77.63 0L77.63-1.15L79.72-1.15L79.72-9.07L77.63-9.07L77.63-10.22L83.09-10.22L83.09-9.07L81.00-9.07L81.00-1.15L83.09-1.15L83.09 0Z"/><path fill="#6e7681" d="M89.07 0L87.78 0L90.44-10.22L92.13-10.22L94.78 0L93.51 0L92.83-2.72L89.74-2.72L89.07 0ZM90.78-6.94L89.99-3.78L92.57-3.78L91.78-6.93Q91.56-7.83 91.43-8.43Q91.31-9.03 91.28-9.21L91.28-9.21Q91.25-9.03 91.13-8.43Q91.00-7.83 90.78-6.94L90.78-6.94Z"/><path fill="#6e7681" d="M113.12-3.43L113.12-3.43Q112.39-3.43 111.92-3.91Q111.44-4.38 111.44-5.11L111.44-5.11Q111.44-5.85 111.92-6.32Q112.39-6.79 113.12-6.79L113.12-6.79Q113.86-6.79 114.33-6.32Q114.80-5.85 114.80-5.11L114.80-5.11Q114.80-4.38 114.33-3.91Q113.86-3.43 113.12-3.43Z"/><path fill="#6e7681" d="M133.31 0L132.06 0L132.06-10.22L135.21-10.22Q136.12-10.22 136.81-9.85Q137.49-9.48 137.87-8.82Q138.25-8.16 138.25-7.28L138.25-7.28Q138.25-6.24 137.72-5.50Q137.19-4.76 136.30-4.47L136.30-4.47L138.39 0L137.00 0L135.00-4.34L133.31-4.34L133.31 0ZM133.31-9.09L133.31-5.47L135.21-5.47Q136.00-5.47 136.47-5.97Q136.95-6.47 136.95-7.28L136.95-7.28Q136.95-8.11 136.47-8.60Q136.00-9.09 135.21-9.09L135.21-9.09L133.31-9.09Z"/><path fill="#6e7681" d="M148.96 0L143.08 0L143.08-10.22L148.96-10.22L148.96-9.07L144.33-9.07L144.33-5.91L148.47-5.91L148.47-4.79L144.33-4.79L144.33-1.15L148.96-1.15L148.96 0Z"/><path fill="#6e7681" d="M156.53 0L153.89 0L153.89-10.22L156.53-10.22Q157.53-10.22 158.25-9.84Q158.97-9.46 159.37-8.78Q159.77-8.09 159.77-7.15L159.77-7.15L159.77-3.08Q159.77-2.14 159.37-1.45Q158.97-0.76 158.25-0.38Q157.53 0 156.53 0L156.53 0ZM155.15-9.10L155.15-1.12L156.53-1.12Q157.46-1.12 157.98-1.64Q158.51-2.16 158.51-3.08L158.51-3.08L158.51-7.15Q158.51-8.06 157.98-8.58Q157.46-9.10 156.53-9.10L156.53-9.10L155.15-9.10Z"/><path fill="#6e7681" d="M170.45 0L164.99 0L164.99-1.15L167.08-1.15L167.08-9.07L164.99-9.07L164.99-10.22L170.45-10.22L170.45-9.07L168.36-9.07L168.36-1.15L170.45-1.15L170.45 0Z"/><path fill="#6e7681" d="M178.70 0.14L178.70 0.14Q177.21 0.14 176.33-0.64Q175.45-1.43 175.45-2.80L175.45-2.80L176.71-2.80Q176.71-1.95 177.25-1.46Q177.80-0.98 178.70-0.98L178.70-0.98Q179.56-0.98 180.08-1.48Q180.60-1.99 180.60-2.80L180.60-2.80Q180.60-3.42 180.27-3.87Q179.94-4.33 179.33-4.49L179.33-4.49L177.77-4.93Q176.81-5.21 176.25-5.93Q175.70-6.65 175.70-7.63L175.70-7.63Q175.70-8.44 176.06-9.06Q176.43-9.67 177.09-10.02Q177.74-10.36 178.60-10.36L178.60-10.36Q179.47-10.36 180.13-10.02Q180.80-9.67 181.17-9.06Q181.55-8.46 181.55-7.66L181.55-7.66L180.29-7.66Q180.29-8.36 179.82-8.80Q179.34-9.24 178.60-9.24L178.60-9.24Q177.86-9.24 177.39-8.80Q176.93-8.36 176.93-7.66L176.93-7.66Q176.93-7.10 177.23-6.70Q177.53-6.30 178.08-6.15L178.08-6.15L179.68-5.70Q180.70-5.42 181.27-4.64Q181.83-3.86 181.83-2.80L181.83-2.80Q181.83-1.46 180.98-0.66Q180.12 0.14 178.70 0.14Z"/><path fill="#6e7681" d="M200.48-3.43L200.48-3.43Q199.75-3.43 199.28-3.91Q198.80-4.38 198.80-5.11L198.80-5.11Q198.80-5.85 199.28-6.32Q199.75-6.79 200.48-6.79L200.48-6.79Q201.22-6.79 201.69-6.32Q202.16-5.85 202.16-5.11L202.16-5.11Q202.16-4.38 201.69-3.91Q201.22-3.43 200.48-3.43Z"/><path fill="#6e7681" d="M220.71 0L219.45 0L219.45-10.22L225.47-10.22L225.47-9.07L220.68-9.07L220.68-5.68L225.11-5.68L225.11-4.54L220.71-4.54L220.71 0Z"/><path fill="#6e7681" d="M236.74 0L230.86 0L230.86-10.22L232.12-10.22L232.12-1.15L236.74-1.15L236.74 0Z"/><path fill="#6e7681" d="M241.95 0L240.66 0L243.32-10.22L245.01-10.22L247.66 0L246.39 0L245.71-2.72L242.62-2.72L241.95 0ZM243.66-6.94L242.87-3.78L245.45-3.78L244.66-6.93Q244.44-7.83 244.31-8.43Q244.19-9.03 244.16-9.21L244.16-9.21Q244.13-9.03 244.01-8.43Q243.88-7.83 243.66-6.94L243.66-6.94Z"/><path fill="#6e7681" d="M255.14 0.14L255.14 0.14Q253.65 0.14 252.77-0.64Q251.89-1.43 251.89-2.80L251.89-2.80L253.15-2.80Q253.15-1.95 253.69-1.46Q254.24-0.98 255.14-0.98L255.14-0.98Q256.00-0.98 256.52-1.48Q257.04-1.99 257.04-2.80L257.04-2.80Q257.04-3.42 256.71-3.87Q256.38-4.33 255.77-4.49L255.77-4.49L254.21-4.93Q253.25-5.21 252.69-5.93Q252.14-6.65 252.14-7.63L252.14-7.63Q252.14-8.44 252.50-9.06Q252.87-9.67 253.53-10.02Q254.18-10.36 255.04-10.36L255.04-10.36Q255.91-10.36 256.57-10.02Q257.24-9.67 257.61-9.06Q257.99-8.46 257.99-7.66L257.99-7.66L256.73-7.66Q256.73-8.36 256.26-8.80Q255.78-9.24 255.04-9.24L255.04-9.24Q254.30-9.24 253.83-8.80Q253.37-8.36 253.37-7.66L253.37-7.66Q253.37-7.10 253.67-6.70Q253.97-6.30 254.52-6.15L254.52-6.15L256.12-5.70Q257.14-5.42 257.71-4.64Q258.27-3.86 258.27-2.80L258.27-2.80Q258.27-1.46 257.42-0.66Q256.56 0.14 255.14 0.14Z"/><path fill="#6e7681" d="M264.35 0L263.09 0L263.09-10.22L264.35-10.22L264.35-5.82L265.86-5.82L268.13-10.22L269.50-10.22L266.97-5.29L269.64 0L268.20 0L265.82-4.72L264.35-4.72L264.35 0Z"/><path fill="#6e7681" d="M287.84-3.43L287.84-3.43Q287.11-3.43 286.64-3.91Q286.16-4.38 286.16-5.11L286.16-5.11Q286.16-5.85 286.64-6.32Q287.11-6.79 287.84-6.79L287.84-6.79Q288.58-6.79 289.05-6.32Q289.52-5.85 289.52-5.11L289.52-5.11Q289.52-4.38 289.05-3.91Q288.58-3.43 287.84-3.43Z"/><path fill="#6e7681" d="M309.41 0L306.77 0L306.77-10.22L309.41-10.22Q310.41-10.22 311.13-9.84Q311.85-9.46 312.25-8.78Q312.65-8.09 312.65-7.15L312.65-7.15L312.65-3.08Q312.65-2.14 312.25-1.45Q311.85-0.76 311.13-0.38Q310.41 0 309.41 0L309.41 0ZM308.03-9.10L308.03-1.12L309.41-1.12Q310.34-1.12 310.86-1.64Q311.39-2.16 311.39-3.08L311.39-3.08L311.39-7.15Q311.39-8.06 310.86-8.58Q310.34-9.10 309.41-9.10L309.41-9.10L308.03-9.10Z"/><path fill="#6e7681" d="M320.45 0.14L320.45 0.14Q319.03 0.14 318.21-0.65Q317.38-1.44 317.38-2.80L317.38-2.80L318.64-2.80Q318.64-1.96 319.13-1.47Q319.62-0.98 320.46-0.98L320.46-0.98Q321.30-0.98 321.79-1.47Q322.28-1.96 322.28-2.80L322.28-2.80L322.28-3.50Q322.28-4.34 321.79-4.83Q321.30-5.32 320.46-5.32L320.46-5.32L319.35-5.32L319.35-6.41L321.86-9.07L317.66-9.07L317.66-10.22L323.29-10.22L323.29-9.04L320.82-6.43Q322.08-6.33 322.81-5.55Q323.54-4.77 323.54-3.50L323.54-3.50L323.54-2.80Q323.54-1.44 322.71-0.65Q321.87 0.14 320.45 0.14Z"/><path fill="#6e7681" d="M331.52 0.14L331.52 0.14Q331.00 0.14 330.69-0.17Q330.37-0.48 330.37-0.97L330.37-0.97Q330.37-1.48 330.69-1.81Q331.00-2.13 331.52-2.13L331.52-2.13Q332.04-2.13 332.35-1.81Q332.67-1.48 332.67-0.97L332.67-0.97Q332.67-0.48 332.35-0.17Q332.04 0.14 331.52 0.14Z"/><path fill="#6e7681" d="M342.02 0.14L342.02 0.14Q340.55 0.14 339.71-0.69Q338.87-1.51 338.87-2.94L338.87-2.94L340.13-2.94Q340.13-2.00 340.63-1.49Q341.12-0.98 342.02-0.98L342.02-0.98Q342.92-0.98 343.41-1.49Q343.91-2.00 343.91-2.94L343.91-2.94L343.91-10.22L345.17-10.22L345.17-2.94Q345.17-1.51 344.32-0.69Q343.48 0.14 342.02 0.14Z"/><path fill="#6e7681" d="M353.42 0.14L353.42 0.14Q351.93 0.14 351.05-0.64Q350.17-1.43 350.17-2.80L350.17-2.80L351.43-2.80Q351.43-1.95 351.97-1.46Q352.52-0.98 353.42-0.98L353.42-0.98Q354.28-0.98 354.80-1.48Q355.32-1.99 355.32-2.80L355.32-2.80Q355.32-3.42 354.99-3.87Q354.66-4.33 354.05-4.49L354.05-4.49L352.49-4.93Q351.53-5.21 350.97-5.93Q350.42-6.65 350.42-7.63L350.42-7.63Q350.42-8.44 350.78-9.06Q351.15-9.67 351.81-10.02Q352.46-10.36 353.32-10.36L353.32-10.36Q354.19-10.36 354.85-10.02Q355.52-9.67 355.89-9.06Q356.27-8.46 356.27-7.66L356.27-7.66L355.01-7.66Q355.01-8.36 354.54-8.80Q354.06-9.24 353.32-9.24L353.32-9.24Q352.58-9.24 352.11-8.80Q351.65-8.36 351.65-7.66L351.65-7.66Q351.65-7.10 351.95-6.70Q352.25-6.30 352.80-6.15L352.80-6.15L354.40-5.70Q355.42-5.42 355.98-4.64Q356.55-3.86 356.55-2.80L356.55-2.80Q356.55-1.46 355.70-0.66Q354.84 0.14 353.42 0.14Z"/>
    <path fill="#58a6ff" d="M895.13 0L889.67 0L889.67-1.15L891.76-1.15L891.76-9.07L889.67-9.07L889.67-10.22L895.13-10.22L895.13-9.07L893.04-9.07L893.04-1.15L895.13-1.15L895.13 0Z"/><path fill="#58a6ff" d="M901.11 0L899.86 0L899.86-10.22L903.01-10.22Q903.92-10.22 904.61-9.85Q905.29-9.48 905.67-8.82Q906.05-8.16 906.05-7.28L906.05-7.28Q906.05-6.24 905.52-5.50Q904.99-4.76 904.10-4.47L904.10-4.47L906.19 0L904.80 0L902.80-4.34L901.11-4.34L901.11 0ZM901.11-9.09L901.11-5.47L903.01-5.47Q903.80-5.47 904.27-5.97Q904.75-6.47 904.75-7.28L904.75-7.28Q904.75-8.11 904.27-8.60Q903.80-9.09 903.01-9.09L903.01-9.09L901.11-9.09Z"/><path fill="#58a6ff" d="M915.85 0L910.39 0L910.39-1.15L912.48-1.15L912.48-9.07L910.39-9.07L910.39-10.22L915.85-10.22L915.85-9.07L913.76-9.07L913.76-1.15L915.85-1.15L915.85 0Z"/><path fill="#58a6ff" d="M923.54 0.14L923.54 0.14Q922.05 0.14 921.17-0.64Q920.29-1.43 920.29-2.80L920.29-2.80L921.55-2.80Q921.55-1.95 922.09-1.46Q922.64-0.98 923.54-0.98L923.54-0.98Q924.40-0.98 924.92-1.48Q925.44-1.99 925.44-2.80L925.44-2.80Q925.44-3.42 925.11-3.87Q924.78-4.33 924.17-4.49L924.17-4.49L922.61-4.93Q921.65-5.21 921.09-5.93Q920.54-6.65 920.54-7.63L920.54-7.63Q920.54-8.44 920.90-9.06Q921.27-9.67 921.93-10.02Q922.58-10.36 923.44-10.36L923.44-10.36Q924.31-10.36 924.97-10.02Q925.64-9.67 926.01-9.06Q926.39-8.46 926.39-7.66L926.39-7.66L925.13-7.66Q925.13-8.36 924.66-8.80Q924.18-9.24 923.44-9.24L923.44-9.24Q922.70-9.24 922.23-8.80Q921.77-8.36 921.77-7.66L921.77-7.66Q921.77-7.10 922.07-6.70Q922.37-6.30 922.92-6.15L922.92-6.15L924.52-5.70Q925.54-5.42 926.11-4.64Q926.67-3.86 926.67-2.80L926.67-2.80Q926.67-1.46 925.82-0.66Q924.96 0.14 923.54 0.14Z"/><path fill="#58a6ff" d="M933.84 0.14L933.84 0.14Q933.32 0.14 933.01-0.17Q932.69-0.48 932.69-0.97L932.69-0.97Q932.69-1.48 933.01-1.81Q933.32-2.13 933.84-2.13L933.84-2.13Q934.36-2.13 934.67-1.81Q934.99-1.48 934.99-0.97L934.99-0.97Q934.99-0.48 934.67-0.17Q934.36 0.14 933.84 0.14Z"/><path fill="#58a6ff" d="M942.56 0L941.30 0L941.30-10.22L942.56-10.22L942.56-5.85L945.84-5.85L945.84-10.22L947.10-10.22L947.10 0L945.84 0L945.84-4.70L942.56-4.70L942.56 0Z"/><path fill="#58a6ff" d="M957.29 0L951.83 0L951.83-1.15L953.92-1.15L953.92-9.07L951.83-9.07L951.83-10.22L957.29-10.22L957.29-9.07L955.20-9.07L955.20-1.15L957.29-1.15L957.29 0Z"/><path fill="#58a6ff" d="M964.98 0.14L964.98 0.14Q963.49 0.14 962.61-0.64Q961.73-1.43 961.73-2.80L961.73-2.80L962.99-2.80Q962.99-1.95 963.53-1.46Q964.08-0.98 964.98-0.98L964.98-0.98Q965.84-0.98 966.36-1.48Q966.88-1.99 966.88-2.80L966.88-2.80Q966.88-3.42 966.55-3.87Q966.22-4.33 965.61-4.49L965.61-4.49L964.05-4.93Q963.09-5.21 962.53-5.93Q961.98-6.65 961.98-7.63L961.98-7.63Q961.98-8.44 962.34-9.06Q962.71-9.67 963.37-10.02Q964.02-10.36 964.88-10.36L964.88-10.36Q965.75-10.36 966.41-10.02Q967.08-9.67 967.45-9.06Q967.83-8.46 967.83-7.66L967.83-7.66L966.57-7.66Q966.57-8.36 966.10-8.80Q965.62-9.24 964.88-9.24L964.88-9.24Q964.14-9.24 963.67-8.80Q963.21-8.36 963.21-7.66L963.21-7.66Q963.21-7.10 963.51-6.70Q963.81-6.30 964.36-6.15L964.36-6.15L965.96-5.70Q966.98-5.42 967.55-4.64Q968.11-3.86 968.11-2.80L968.11-2.80Q968.11-1.46 967.26-0.66Q966.40 0.14 964.98 0.14Z"/><path fill="#58a6ff" d="M973.64 0L972.38 0L972.38-10.22L973.64-10.22L973.64-5.85L976.92-5.85L976.92-10.22L978.18-10.22L978.18 0L976.92 0L976.92-4.70L973.64-4.70L973.64 0Z"/><path fill="#58a6ff" d="M983.43 0L982.14 0L984.80-10.22L986.49-10.22L989.14 0L987.87 0L987.19-2.72L984.10-2.72L983.43 0ZM985.14-6.94L984.35-3.78L986.93-3.78L986.14-6.93Q985.92-7.83 985.79-8.43Q985.67-9.03 985.64-9.21L985.64-9.21Q985.61-9.03 985.49-8.43Q985.36-7.83 985.14-6.94L985.14-6.94Z"/><path fill="#58a6ff" d="M993.79 0L992.50 0L995.16-10.22L996.85-10.22L999.50 0L998.23 0L997.55-2.72L994.46-2.72L993.79 0ZM995.50-6.94L994.71-3.78L997.29-3.78L996.50-6.93Q996.28-7.83 996.15-8.43Q996.03-9.03 996.00-9.21L996.00-9.21Q995.97-9.03 995.85-8.43Q995.72-7.83 995.50-6.94L995.50-6.94Z"/><path fill="#58a6ff" d="M1004.39 0L1003.17 0L1003.17-10.22L1005.03-10.22L1006.33-5.80L1007.69-10.22L1009.55-10.22L1009.55 0L1008.33 0L1008.33-4.83Q1008.33-5.52 1008.36-6.41Q1008.38-7.29 1008.42-8.20Q1008.46-9.11 1008.52-9.84L1008.52-9.84L1006.86-4.56L1005.77-4.56L1004.19-9.72Q1004.30-8.68 1004.34-7.45Q1004.39-6.22 1004.39-4.83L1004.39-4.83L1004.39 0Z"/><path fill="#58a6ff" d="M1016.72 0.14L1016.72 0.14Q1016.20 0.14 1015.89-0.17Q1015.57-0.48 1015.57-0.97L1015.57-0.97Q1015.57-1.48 1015.89-1.81Q1016.20-2.13 1016.72-2.13L1016.72-2.13Q1017.24-2.13 1017.55-1.81Q1017.87-1.48 1017.87-0.97L1017.87-0.97Q1017.87-0.48 1017.55-0.17Q1017.24 0.14 1016.72 0.14Z"/><path fill="#58a6ff" d="M1026.81 0L1024.17 0L1024.17-10.22L1026.81-10.22Q1027.81-10.22 1028.53-9.84Q1029.25-9.46 1029.65-8.78Q1030.05-8.09 1030.05-7.15L1030.05-7.15L1030.05-3.08Q1030.05-2.14 1029.65-1.45Q1029.25-0.76 1028.53-0.38Q1027.81 0 1026.81 0L1026.81 0ZM1025.43-9.10L1025.43-1.12L1026.81-1.12Q1027.74-1.12 1028.26-1.64Q1028.79-2.16 1028.79-3.08L1028.79-3.08L1028.79-7.15Q1028.79-8.06 1028.26-8.58Q1027.74-9.10 1026.81-9.10L1026.81-9.10L1025.43-9.10Z"/><path fill="#58a6ff" d="M1040.52 0L1034.64 0L1034.64-10.22L1040.52-10.22L1040.52-9.07L1035.89-9.07L1035.89-5.91L1040.03-5.91L1040.03-4.79L1035.89-4.79L1035.89-1.15L1040.52-1.15L1040.52 0Z"/><path fill="#58a6ff" d="M1048.65 0L1046.93 0L1044.30-10.22L1045.59-10.22L1047.34-3.26Q1047.52-2.53 1047.64-1.92Q1047.76-1.30 1047.81-0.98L1047.81-0.98Q1047.87-1.30 1048.00-1.93Q1048.14-2.55 1048.32-3.28L1048.32-3.28L1050.00-10.22L1051.30-10.22L1048.65 0Z"/>
  </g>
</svg>
